<svg width="108" height="108" viewBox="0 0 108 108" fill="none" xmlns="http://www.w3.org/2000/svg">
<g clip-path="url(#clip0_2583_246)">
<rect x="2" y="2" width="104" height="104" rx="52" fill="white" style="fill:white;fill-opacity:1;"/>
<path fill-rule="evenodd" clip-rule="evenodd" d="M2.00098 2H64.401V50.5333H2.00098V2Z" fill="#1A47B8" style="fill:#1A47B8;fill:color(display-p3 0.1021 0.2767 0.7208);fill-opacity:1;"/>
<path fill-rule="evenodd" clip-rule="evenodd" d="M64.401 2L64.401 8.93333H147.601V2H64.401ZM64.401 15.8667V22.8H147.601V15.8667H64.401ZM64.401 29.7333V36.6667H147.601V29.7333H64.401ZM64.401 43.6L64.401 50.5333H147.601V43.6H64.401ZM2.00098 57.4667V64.4H147.601V57.4667H2.00098ZM2.00098 71.3333V78.2667H147.601V71.3333H2.00098ZM2.00098 85.2V92.1333H147.601V85.2H2.00098ZM2.00098 99.0667V106H147.601V99.0667H2.00098Z" fill="#F93939" style="fill:#F93939;fill:color(display-p3 0.9750 0.2234 0.2234);fill-opacity:1;"/>
<path fill-rule="evenodd" clip-rule="evenodd" d="M8.93383 8.9332V15.8665H15.8672V8.9332H8.93383ZM22.8005 8.9332V15.8665H29.7338V8.9332H22.8005ZM36.6672 8.9332V15.8665H43.6005V8.9332H36.6672ZM50.5338 8.9332V15.8665H57.4672V8.9332H50.5338ZM43.6005 15.8665V22.7999H50.5338V15.8665H43.6005ZM29.7338 15.8665V22.7999H36.6672V15.8665H29.7338ZM15.8672 15.8665V22.7999H22.8005V15.8665H15.8672ZM8.93383 22.7999V29.7332H15.8672V22.7999H8.93383ZM22.8005 22.7999V29.7332H29.7338V22.7999H22.8005ZM36.6672 22.7999V29.7332H43.6005V22.7999H36.6672ZM50.5338 22.7999V29.7332H57.4672V22.7999H50.5338ZM8.93383 36.6665V43.5999H15.8672V36.6665H8.93383ZM22.8005 36.6665V43.5999H29.7338V36.6665H22.8005ZM36.6672 36.6665V43.5999H43.6005V36.6665H36.6672ZM50.5338 36.6665V43.5999H57.4672V36.6665H50.5338ZM43.6005 29.7332V36.6665H50.5338V29.7332H43.6005ZM29.7338 29.7332V36.6665H36.6672V29.7332H29.7338ZM15.8672 29.7332V36.6665H22.8005V29.7332H15.8672Z" fill="white" style="fill:white;fill-opacity:1;"/>
</g>
<rect x="3.5" y="3.5" width="101" height="101" rx="50.5" stroke="#222222" stroke-opacity="0.08" style="stroke:#222222;stroke:color(display-p3 0.1333 0.1333 0.1333);stroke-opacity:0.08;" stroke-width="3"/>
<defs>
<clipPath id="clip0_2583_246">
<rect x="2" y="2" width="104" height="104" rx="52" fill="white" style="fill:white;fill-opacity:1;"/>
</clipPath>
</defs>
</svg>
