<svg width="108" height="108" viewBox="0 0 108 108" fill="none" xmlns="http://www.w3.org/2000/svg">
<rect x="2" y="2" width="104" height="104" rx="52" fill="white" style="fill:white;fill-opacity:1;"/>
<rect x="2" y="2" width="104" height="104" rx="52" fill="#F0371D" style="fill:#F0371D;fill:color(display-p3 0.9412 0.2157 0.1137);fill-opacity:1;"/>
<rect x="3.5" y="3.5" width="101" height="101" rx="50.5" stroke="#222222" stroke-opacity="0.08" style="stroke:#222222;stroke:color(display-p3 0.1333 0.1333 0.1333);stroke-opacity:0.08;" stroke-width="3"/>
<path fill-rule="evenodd" clip-rule="evenodd" d="M52.8212 44.8142C57.4911 40.9055 57.7751 40.0314 58.894 36.5877C59.2675 35.4383 59.004 34.4943 58.693 33.3794C58.2444 31.7717 57.6967 29.8089 58.8164 26.3629C53.7212 24.7074 47.8013 28.8726 45.594 35.6662C43.3866 42.4597 45.7276 49.309 50.8228 50.9646C51.7349 51.2609 51.6327 51.0467 51.3558 50.4664C50.87 49.4484 49.8467 47.3038 52.8212 44.8142ZM43.1505 51.9531C40.8762 46.304 40.1326 45.7637 37.2033 43.6355C36.2255 42.9251 35.2463 42.8839 34.0898 42.8352C32.4222 42.765 30.3862 42.6794 27.4549 40.5496C24.3059 44.8838 26.4379 51.8011 32.2169 55.9997C37.9958 60.1984 45.2333 60.0885 48.3823 55.7543C48.946 54.9784 48.7106 55.0094 48.0733 55.0934C46.9549 55.2409 44.5991 55.5514 43.1505 51.9531ZM72.2996 55.0389C68.6788 55.0389 67.7597 55.0389 62.5992 51.8055C59.3122 49.7459 57.5888 51.3819 56.7708 52.1585C56.3045 52.6011 56.1323 52.7645 56.1323 51.8055C56.1323 46.4481 61.923 42.1051 69.0661 42.1051C76.2093 42.1051 82 46.4481 82 51.8055C78.3767 51.8055 76.6791 52.9329 75.2888 53.8563C74.3246 54.4967 73.5082 55.0389 72.2996 55.0389ZM72.2996 48.9576C72.2996 49.8505 71.5758 50.5743 70.6829 50.5743C69.79 50.5743 69.0662 49.8505 69.0662 48.9576C69.0662 48.0647 69.79 47.3408 70.6829 47.3408C71.5758 47.3408 72.2996 48.0647 72.2996 48.9576ZM58.9716 63.2654C57.4911 69.1725 57.7751 70.0466 58.894 73.4902C59.2675 74.6396 60.0355 75.2486 60.9425 75.9677C62.2503 77.0046 63.8471 78.2706 64.9668 81.7166C70.062 80.0611 72.403 73.2118 70.1956 66.4182C67.9883 59.6247 62.0684 55.4595 56.9732 57.115C56.0611 57.4113 56.2698 57.5246 56.8348 57.8313C57.8262 58.3693 59.9147 59.5028 58.9716 63.2654ZM64.6777 71.611C63.8285 71.8869 62.9165 71.4221 62.6405 70.5729C62.3646 69.7238 62.8293 68.8117 63.6785 68.5357C64.5277 68.2598 65.4398 68.7246 65.7157 69.5737C65.9917 70.4229 65.5269 71.335 64.6777 71.611ZM46.9516 63.3566C40.8762 63.7739 40.1326 64.3142 37.2033 66.4424C36.2255 67.1528 35.8837 68.0714 35.4801 69.1562C34.898 70.7205 34.1874 72.6304 31.2561 74.7601C34.405 79.0943 41.6426 79.2042 47.4215 75.0056C53.2005 70.8069 55.3325 63.8897 52.1835 59.5555C51.6198 58.7796 51.5765 59.013 51.4595 59.6452C51.2541 60.7543 50.8214 63.0908 46.9516 63.3566ZM40.7778 71.3624C40.253 70.64 40.4131 69.629 41.1355 69.1041C41.8578 68.5793 42.8689 68.7394 43.3937 69.4618C43.9186 70.1842 43.7584 71.1952 43.0361 71.7201C42.3137 72.2449 41.3026 72.0848 40.7778 71.3624ZM33.6287 48.5554C34.1536 47.833 35.1646 47.6729 35.887 48.1977C36.6094 48.7225 36.7695 49.7336 36.2447 50.456C35.7198 51.1783 34.7088 51.3385 33.9864 50.8136C33.264 50.2888 33.1039 49.2777 33.6287 48.5554ZM53.1103 34.7085C53.9595 34.9844 54.4242 35.8965 54.1483 36.7457C53.8724 37.5949 52.9603 38.0596 52.1111 37.7837C51.2619 37.5078 50.7971 36.5957 51.0731 35.7465C51.349 34.8973 52.2611 34.4326 53.1103 34.7085Z" fill="white" style="fill:white;fill-opacity:1;"/>
</svg>
